<svg width="24" height="24" viewBox="0 0 24 24" fill="none" xmlns="http://www.w3.org/2000/svg">
<g id="Icon">
<path id="Vector" d="M12.998 22H10.998V19H12.998V22ZM18.362 19.778L16.241 17.657L17.655 16.243L19.777 18.365L18.364 19.778H18.362ZM5.63399 19.778L4.21899 18.364L6.33899 16.242L7.75399 17.656L5.63399 19.777V19.778ZM11.998 17.007C9.23296 17.0059 6.99225 14.7637 6.99299 11.9987C6.99372 9.23364 9.23562 6.99263 12.0007 6.993C14.7657 6.99337 17.007 9.23497 17.007 12C17.0042 14.7649 14.7629 17.0053 11.998 17.007ZM11.998 8.993C10.3375 8.9941 8.99225 10.3409 8.99299 12.0013C8.99372 13.6618 10.3402 15.0074 12.0007 15.007C13.6611 15.0066 15.007 13.6605 15.007 12C15.0053 10.3392 13.6588 8.99355 11.998 8.993ZM21.998 13H18.998V11H21.998V13ZM4.99799 13H1.99799V11H4.99799V13ZM17.654 7.758L16.241 6.343L18.362 4.221L19.777 5.636L17.655 7.757L17.654 7.758ZM6.34099 7.758L4.22099 5.637L5.63599 4.223L7.75599 6.345L6.34199 7.757L6.34099 7.758ZM12.998 5H10.998V2H12.998V5Z" fill="#0F1828"/>
</g>
</svg>
