<?xml version="1.0" encoding="utf-8"?><!-- Uploaded to: SVG Repo, www.svgrepo.com, Generator: SVG Repo Mixer Tools -->
<svg width="800px" height="800px" viewBox="0 0 24 24" fill="none" xmlns="http://www.w3.org/2000/svg">
<path d="M10.9519 14.8C10.9519 15.2142 11.2877 15.55 11.7019 15.55C12.1161 15.55 12.4519 15.2142 12.4519 14.8H10.9519ZM12.4519 13.4C12.4519 12.9858 12.1161 12.65 11.7019 12.65C11.2877 12.65 10.9519 12.9858 10.9519 13.4H12.4519ZM13.7375 10.079C13.7375 10.4932 14.0733 10.829 14.4875 10.829C14.9017 10.829 15.2375 10.4932 15.2375 10.079H13.7375ZM14.4875 7.94L13.7375 7.92983V7.94H14.4875ZM11.7019 5L11.7133 4.25009C11.7057 4.24997 11.6982 4.24997 11.6906 4.25009L11.7019 5ZM8.91635 7.94L9.66642 7.94L9.66628 7.92983L8.91635 7.94ZM8.16635 10.079C8.16635 10.4932 8.50214 10.829 8.91635 10.829C9.33057 10.829 9.66635 10.4932 9.66635 10.079H8.16635ZM14.0582 10.694C14.3979 10.9311 14.8654 10.8479 15.1025 10.5083C15.3396 10.1686 15.2564 9.70108 14.9168 9.464L14.0582 10.694ZM8.48708 9.464C8.14743 9.70108 8.06427 10.1686 8.30135 10.5083C8.53843 10.8479 9.00597 10.9311 9.34563 10.694L8.48708 9.464ZM14.9175 9.46448C14.5781 9.22702 14.1104 9.30965 13.873 9.64905C13.6355 9.98844 13.7182 10.4561 14.0576 10.6935L14.9175 9.46448ZM15.1486 10.635L14.617 11.1641L14.6171 11.1642L15.1486 10.635ZM16.4794 13.144L17.2152 12.9986L17.2151 12.9981L16.4794 13.144ZM16.2016 15.975L16.8946 16.2618L16.8948 16.2613L16.2016 15.975ZM14.4056 18.175L13.9885 17.5517L13.9884 17.5518L14.4056 18.175ZM8.25043 17.566L7.72085 18.0971L7.72121 18.0974L8.25043 17.566ZM7.64885 11.378L8.27249 11.7946L8.27339 11.7933L7.64885 11.378ZM9.34623 10.6926C9.68565 10.4552 9.76835 9.98754 9.53093 9.64812C9.29351 9.3087 8.8259 9.22601 8.48647 9.46342L9.34623 10.6926ZM12.4519 14.8V13.4H10.9519V14.8H12.4519ZM15.2375 10.079V7.94H13.7375V10.079H15.2375ZM15.2374 7.95017C15.2645 5.95388 13.7052 4.28018 11.7133 4.25009L11.6906 5.74991C12.8196 5.76697 13.7539 6.72506 13.7376 7.92983L15.2374 7.95017ZM11.6906 4.25009C9.69865 4.28018 8.13936 5.95388 8.16642 7.95017L9.66628 7.92983C9.64995 6.72506 10.5842 5.76697 11.7133 5.74991L11.6906 4.25009ZM8.16635 7.94V10.079H9.66635V7.94H8.16635ZM14.9168 9.464C12.978 8.11074 10.4258 8.11074 8.48708 9.464L9.34563 10.694C10.7686 9.70074 12.6352 9.70074 14.0582 10.694L14.9168 9.464ZM14.0576 10.6935C14.2569 10.833 14.4442 10.9905 14.617 11.1641L15.6801 10.1059C15.445 9.8697 15.1898 9.65503 14.9175 9.46448L14.0576 10.6935ZM14.6171 11.1642C15.1895 11.7391 15.583 12.4792 15.7438 13.2899L17.2151 12.9981C16.9975 11.9009 16.4639 10.8931 15.68 10.1058L14.6171 11.1642ZM15.7437 13.2894C15.903 14.0957 15.8207 14.9324 15.5083 15.6887L16.8948 16.2613C17.3203 15.231 17.4317 14.0939 17.2152 12.9986L15.7437 13.2894ZM15.5085 15.6882C15.192 16.4532 14.6618 17.1012 13.9885 17.5517L14.8227 18.7983C15.7461 18.1805 16.4663 17.2967 16.8946 16.2618L15.5085 15.6882ZM13.9884 17.5518C12.3492 18.6492 10.1888 18.4378 8.77965 17.0346L7.72121 18.0974C9.63341 20.0016 12.5854 20.2961 14.8228 18.7982L13.9884 17.5518ZM8.78 17.0349C7.39325 15.6521 7.17538 13.4369 8.27249 11.7946L7.02522 10.9614C5.53306 13.195 5.82314 16.2048 7.72085 18.0971L8.78 17.0349ZM8.27339 11.7933C8.56162 11.3598 8.92575 10.9867 9.34623 10.6926L8.48647 9.46342C7.91101 9.86594 7.4153 10.3747 7.02432 10.9627L8.27339 11.7933Z" fill="#000000"/>
</svg>