<svg width="150" height="215" viewBox="0 0 150 215" fill="none" xmlns="http://www.w3.org/2000/svg">
<rect width="150" height="215" fill="#E5E5E5"/>
<g clip-path="url(#clip0_0_1)">
<rect x="-62" y="-191" width="375" height="812" rx="24" fill="white"/>
<rect x="3.89368" y="-13" width="117.463" height="117.463" rx="58.7314" fill="#CDE1FD"/>
<g clip-path="url(#clip1_0_1)">
<path d="M94.8317 15.6702L101.685 9.61633H94.6947L94.8317 15.6702Z" fill="#002DE3"/>
<path d="M131.53 10.3018L97.4269 10.3018C92.2086 10.3018 87.9783 6.07146 87.9783 0.853134V-3.55135C87.9783 -8.76968 92.2086 -13 97.4269 -13L131.53 -13C136.748 -13 140.978 -8.76968 140.978 -3.55135V0.853134C140.978 6.07146 136.748 10.3018 131.53 10.3018Z" fill="#002DE3"/>
<path d="M107.396 0.706919C106.261 0.706919 105.34 -0.2136 105.34 -1.34912C105.34 -2.48463 106.261 -3.40515 107.396 -3.40515C108.532 -3.40515 109.452 -2.48463 109.452 -1.34912C109.452 -0.2136 108.532 0.706919 107.396 0.706919Z" fill="white"/>
<path d="M114.478 0.706919C113.343 0.706919 112.422 -0.2136 112.422 -1.34912C112.422 -2.48463 113.343 -3.40515 114.478 -3.40515C115.614 -3.40515 116.534 -2.48463 116.534 -1.34912C116.534 -0.2136 115.614 0.706919 114.478 0.706919Z" fill="white"/>
<path d="M121.56 0.706919C120.425 0.706919 119.504 -0.2136 119.504 -1.34912C119.504 -2.48463 120.425 -3.40515 121.56 -3.40515C122.696 -3.40515 123.616 -2.48463 123.616 -1.34912C123.616 -0.2136 122.696 0.706919 121.56 0.706919Z" fill="white"/>
</g>
<path d="M127.264 86.5171L118.17 83.3219L111.209 103.134L120.302 106.329L127.264 86.5171Z" fill="#1F161E"/>
<path d="M132.978 182.212C133.37 182.829 135.457 186.541 136.613 186.921C138.707 187.602 149.545 183.693 149.838 183.177C150.13 182.66 149.964 181.806 149.353 181.732C148.741 181.659 143.903 182.391 143.119 182.286C142.335 182.18 140.521 180.914 140.308 180" fill="#1F161E"/>
<path d="M0.978149 125.244C0.978149 150.183 12.1722 155.42 23.3076 155.42C51.5144 155.42 88.2111 139.385 90.2831 138.767C89.6315 141.39 85.5201 207.885 85.5201 208.268C86.4974 208.809 93.9906 209.275 96.5122 208.809C97.1637 207.192 116.978 128.103 116.978 126.02C116.978 123.937 115.271 120.769 108.814 120.312C106.084 120.118 68.1035 119 68.1035 119" fill="#1F161E"/>
<path d="M95.8655 108C104.364 116.746 142.312 177.799 141.976 179.226C141.639 180.653 132.914 183.678 131.07 182.863C123.244 179.434 75.1987 121.81 73.3281 120.94C71.4576 120.07 68.6549 120.406 66.985 120.645C62.6419 115.513 72.3637 109.418 95.8655 108Z" fill="#0F1828"/>
<path d="M57.5023 38.266C70.2797 38.266 73.9537 50.3647 75.0108 54.9327C78.3912 69.5176 68.9811 124.94 67.8913 126.468C58.6443 139.395 5.78609 140.543 0.630775 134.944C-4.52454 129.345 22.5898 38.266 57.5023 38.266Z" fill="#375FFF"/>
<path d="M86.9754 208C86.8039 208.63 85.5115 212.318 86.1577 213.039C87.3182 214.343 99.3915 215.242 100.051 214.942C100.71 214.642 101.258 213.908 100.822 213.639C100.387 213.37 95.8111 212.162 95.2506 211.788C94.6901 211.415 94.222 209.755 94.7956 208.956" fill="#1F161E"/>
<path d="M55.5903 40.8175C55.2444 41.9269 64.2629 44.7329 64.6088 43.6301L68.1066 32.4058L59.0946 29.5933L55.5903 40.8175Z" fill="#F8CDBA"/>
<path d="M64.5305 35.0618C63.6496 34.7877 57.2478 35.5251 56.8171 36.9086L59.0946 29.5933C60.4976 30.0305 64.5305 35.0618 64.5305 35.0618Z" fill="#1F161E"/>
<path d="M69.5618 36.8629C76.8745 36.8629 82.8025 30.9349 82.8025 23.6223C82.8025 16.3096 76.8745 10.3816 69.5618 10.3816C62.2492 10.3816 56.3212 16.3096 56.3212 23.6223C56.3212 30.9349 62.2492 36.8629 69.5618 36.8629Z" fill="#F8CDBA"/>
<path d="M82.7686 30.5974C82.9672 29.9609 82.1353 29.1351 80.9105 28.7529C79.6857 28.3708 78.5319 28.5769 78.3332 29.2134C78.1346 29.8499 78.9665 30.6757 80.1913 31.0579C81.4161 31.44 82.57 31.2339 82.7686 30.5974Z" fill="#FA9E9F"/>
<path d="M68.8465 26.2561C69.0451 25.6196 68.2132 24.7938 66.9884 24.4116C65.7636 24.0295 64.6097 24.2356 64.4111 24.8721C64.2125 25.5086 65.0444 26.3344 66.2692 26.7165C67.494 27.0987 68.6479 26.8926 68.8465 26.2561Z" fill="#FA9E9F"/>
<path d="M75.8983 25.8345C76.1267 26.5523 77.4841 29.6977 74.9325 30.0044" stroke="#0F1828" stroke-width="1.2" stroke-miterlimit="10" stroke-linecap="round"/>
<path d="M69.5554 31.5053C68.9028 31.2769 68.1197 30.1545 67.813 29.2344" stroke="#0F1828" stroke-width="1.2" stroke-miterlimit="10" stroke-linecap="round"/>
<path d="M73.5687 6.25083C70.0774 5.81361 59.943 2.79873 57.6394 0.703979C56.5496 1.27824 52.3144 5.08273 48.8623 10.2315L53.7632 15.1584L47.5703 12.3002C45.9382 14.9745 44.8164 17.9284 44.2617 21.012C45.8605 25.3255 50.8788 27.1005 51.825 27.2179C57.9266 27.988 60.2693 18.5061 63.3429 17.3315C68.5635 15.3281 74.7107 20.5291 82.4437 20.2028C84.1599 16.6985 81.9281 7.30147 73.5687 6.25083Z" fill="#1F161E"/>
<path d="M57.4241 24.4901C59.1144 24.4901 60.4846 23.1199 60.4846 21.4296C60.4846 19.7393 59.1144 18.369 57.4241 18.369C55.7338 18.369 54.3635 19.7393 54.3635 21.4296C54.3635 23.1199 55.7338 24.4901 57.4241 24.4901Z" fill="#F8CDBA"/>
<path d="M44.2617 69.3023C43.6091 73.3874 41.4948 111.961 46.5588 115.713C57.4045 123.746 107.489 113.919 115.079 111.106C115.901 108.417 115.079 99.8752 115.079 99.8752C112.155 99.7578 75.2719 99.4054 73.0727 96.6124C70.8736 93.8194 70.6125 70.9859 70.9649 68.4083" fill="#375FFF"/>
<path d="M120.182 112C124.099 112 127.275 108.824 127.275 104.907C127.275 100.989 124.099 97.8131 120.182 97.8131C116.264 97.8131 113.088 100.989 113.088 104.907C113.088 108.824 116.264 112 120.182 112Z" fill="#F8CDBA"/>
<path d="M73.0662 96.6319C70.8409 93.8193 70.606 71.0055 70.9584 68.4278" stroke="#0F1828" stroke-linecap="round" stroke-linejoin="round"/>
<path d="M69.601 118.611C59.3818 119.178 50.4481 118.611 46.5588 115.713C44.34 114.075 43.4982 105.768 43.2959 96.5993" stroke="#0F1828" stroke-linecap="round" stroke-linejoin="round"/>
</g>
<defs>
<clipPath id="clip0_0_1">
<rect x="-62" y="-191" width="375" height="812" rx="24" fill="white"/>
</clipPath>
<clipPath id="clip1_0_1">
<rect width="53" height="28.6703" fill="white" transform="matrix(-1 0 0 1 140.978 -13)"/>
</clipPath>
</defs>
</svg>
