<svg width="93" height="78" viewBox="0 0 93 78" fill="none" xmlns="http://www.w3.org/2000/svg">
<g id="man-walking-texting 1" clip-path="url(#clip0_1_189)">
<g id="Layer 2">
<g id="vector">
<path id="Vector" d="M7.09379 34.6803C5.97242 33.8936 1.21747 28.1129 0.656787 26.1701C0.0961024 24.2272 -0.325498 16.9036 5.2205 18.5682C10.7665 20.2329 8.26297 26.1005 12.1747 29.7993" fill="#F8CDBA"/>
<path id="Vector_2" d="M5.23777 13.3285L0.220703 17.3336L8.94671 28.2645L13.9638 24.2594L5.23777 13.3285Z" fill="#1F161E"/>
<path id="Vector_3" d="M75.8015 29.7993C77.1663 31.0685 91.1226 54.5737 91.1226 57.5162C91.1226 60.4588 87.9019 78.305 86.0503 82.1125C84.1987 85.9199 75.8015 29.7993 75.8015 29.7993Z" fill="#1F161E"/>
<path id="Vector_4" d="M67.5913 23.2581C87.6803 23.2581 90.3055 94.0521 88.8886 96.8989C87.4717 99.7458 52.3441 99.4155 49.4972 96.8989C46.6503 94.3824 49.1147 23.2581 67.5913 23.2581Z" fill="#002DE3"/>
<path id="Vector_5" d="M63.9794 25.6225C63.9794 26.8829 70.9336 26.9785 70.9336 25.6225V17.1731H63.9794V25.6225Z" fill="#F8CDBA"/>
<path id="Vector_6" d="M70.9422 22.2105C70.9422 21.4586 69.2037 18.8638 67.8998 19.3028C69.5384 18.7247 70.3468 16.7515 70.9422 17.1557V22.2105Z" fill="#0F1828"/>
<path id="Vector_7" d="M64.3705 20.0156C69.3658 20.0156 73.4154 15.9661 73.4154 10.9707C73.4154 5.97541 69.3658 1.9259 64.3705 1.9259C59.3752 1.9259 55.3257 5.97541 55.3257 10.9707C55.3257 15.9661 59.3752 20.0156 64.3705 20.0156Z" fill="#F8CDBA"/>
<path id="Vector_8" d="M55.2257 12.9701C56.0587 12.9701 56.7339 12.6179 56.7339 12.1834C56.7339 11.7489 56.0587 11.3967 55.2257 11.3967C54.3928 11.3967 53.7175 11.7489 53.7175 12.1834C53.7175 12.6179 54.3928 12.9701 55.2257 12.9701Z" fill="#FA9E9F"/>
<path id="Vector_9" d="M64.7096 12.9701C65.5425 12.9701 66.2178 12.6179 66.2178 12.1834C66.2178 11.7489 65.5425 11.3967 64.7096 11.3967C63.8766 11.3967 63.2014 11.7489 63.2014 12.1834C63.2014 12.6179 63.8766 12.9701 64.7096 12.9701Z" fill="#FA9E9F"/>
<path id="Vector_10" d="M58.8985 10.5536C58.6203 10.9578 57.1599 12.6485 58.6985 13.3309" stroke="#0F1828" stroke-width="0.69" stroke-miterlimit="10" stroke-linecap="round"/>
<path id="Vector_11" d="M61.7496 15.3042C62.1843 15.3042 62.9014 14.7435 63.2709 14.235" stroke="#0F1828" stroke-width="0.69" stroke-miterlimit="10" stroke-linecap="round"/>
<path id="Vector_12" d="M73.0155 5.69862C73.0155 2.56053 68.6387 0.222168 65.5919 0.222168C60.7413 0.222168 54.8302 1.40439 53.8566 1.74775C52.2224 2.31713 51.9442 4.06003 51.9442 4.64245C51.9442 7.08512 52.8135 8.60635 55.5256 8.98884C55.7113 8.12719 56.0311 7.30002 56.4732 6.53747C57.2236 6.24899 58.0519 6.23513 58.8115 6.49835C59.4982 6.73741 65.2355 9.44086 69.4819 9.44086C70.0469 10.2362 71.29 15.0912 70.9249 17.1514C72.168 17.2252 74.4585 13.1788 74.5759 11.0664C74.6024 10.3415 74.459 9.62043 74.1572 8.96083C73.8553 8.30124 73.4033 7.7214 72.8373 7.26766C72.8938 6.81129 73.0155 5.94636 73.0155 5.69862Z" fill="#0F1828"/>
<path id="Vector_13" d="M69.8818 13.3917C70.9812 13.3917 71.8724 12.5004 71.8724 11.401C71.8724 10.3016 70.9812 9.4104 69.8818 9.4104C68.7824 9.4104 67.8911 10.3016 67.8911 11.401C67.8911 12.5004 68.7824 13.3917 69.8818 13.3917Z" fill="#F8CDBA"/>
<path id="Vector_14" d="M72.8722 42.3821C67.8912 49.9927 40.961 61.9974 38.1271 61.9974C30.6122 61.9974 8.36302 37.3056 7.09387 34.6716C8.55861 33.1069 11.6793 29.7906 12.1661 29.7906C12.6529 29.7906 33.8329 44.4293 37.8359 44.4293C41.8389 44.4293 60.8109 31.0815 63.2797 30.4817" fill="#002DE3"/>
<path id="Vector_15" d="M56.5688 34.3022C59.8503 32.2637 62.4625 30.6773 63.2796 30.4817" stroke="#0F1828" stroke-linecap="round" stroke-linejoin="round"/>
<path id="Vector_16" d="M50.9315 56.9209C59.6243 52.744 69.9731 46.8242 72.8721 42.3909" stroke="#0F1828" stroke-linecap="round" stroke-linejoin="round"/>
<path id="Vector_17" d="M49.5276 67.6912C49.7059 65.9918 58.5117 53.07 60.2111 52.0703C58.4073 53.0743 51.5791 56.5384 50.9315 56.9209C50.5534 57.9336 49.5276 67.6912 49.5276 67.6912Z" fill="#1F161E"/>
</g>
</g>
</g>
<defs>
<clipPath id="clip0_1_189">
<rect width="111.111" height="219.523" fill="white" transform="translate(0.222168 0.222168)"/>
</clipPath>
</defs>
</svg>
